<svg id="svg" version="1.1" xmlns="http://www.w3.org/2000/svg" xmlns:xlink="http://www.w3.org/1999/xlink" width="400" height="400" viewBox="0, 0, 400,400"><g id="svgg"><path id="path0" d="M179.010 2.282 C 177.916 2.375,176.836 2.603,176.610 2.789 C 176.385 2.975,174.490 3.256,172.400 3.414 C 170.310 3.571,168.420 3.836,168.200 4.002 C 167.980 4.168,166.360 4.434,164.600 4.592 C 162.840 4.750,161.220 5.020,161.000 5.191 C 160.780 5.361,159.520 5.631,158.200 5.789 C 156.880 5.948,155.620 6.216,155.400 6.386 C 155.180 6.557,154.281 6.825,153.403 6.984 C 151.517 7.325,150.965 7.607,151.516 7.950 C 151.737 8.088,150.860 8.220,149.567 8.244 C 148.275 8.268,146.988 8.473,146.709 8.699 C 146.429 8.925,145.255 9.237,144.100 9.393 C 142.946 9.548,141.900 9.838,141.777 10.037 C 141.654 10.237,141.102 10.400,140.550 10.400 C 139.052 10.400,137.738 11.184,138.446 11.655 C 138.818 11.903,138.645 11.942,137.919 11.773 C 137.273 11.624,136.348 11.767,135.623 12.129 C 134.955 12.462,133.821 12.860,133.104 13.014 C 132.387 13.167,131.620 13.431,131.400 13.600 C 131.180 13.769,130.370 14.041,129.600 14.205 C 127.796 14.588,126.531 15.423,127.272 15.741 C 127.562 15.866,127.344 15.876,126.787 15.763 C 126.230 15.650,125.240 15.836,124.587 16.176 C 123.934 16.517,123.223 16.796,123.006 16.798 C 121.957 16.804,118.408 18.960,118.890 19.297 C 119.223 19.529,119.096 19.567,118.525 19.407 C 118.044 19.272,117.324 19.331,116.925 19.538 C 116.526 19.745,115.669 20.126,115.021 20.384 C 114.071 20.764,113.954 20.932,114.421 21.254 C 114.856 21.553,114.780 21.591,114.115 21.404 C 112.926 21.070,111.262 21.927,112.046 22.469 C 112.443 22.744,112.350 22.782,111.715 22.604 C 110.526 22.270,108.862 23.127,109.646 23.669 C 110.043 23.944,109.950 23.982,109.315 23.804 C 108.126 23.470,106.462 24.327,107.246 24.869 C 107.638 25.141,107.531 25.177,106.880 24.993 C 105.669 24.651,103.618 25.896,104.447 26.470 C 104.840 26.742,104.740 26.779,104.100 26.599 C 102.652 26.192,100.510 27.881,101.480 28.663 C 102.131 29.189,102.107 29.199,101.228 28.770 C 99.546 27.948,94.171 31.218,95.494 32.258 C 96.113 32.745,96.067 32.756,95.116 32.350 C 93.792 31.783,91.418 32.958,92.447 33.670 C 92.835 33.939,92.721 33.974,92.064 33.788 C 91.366 33.591,90.737 33.838,89.588 34.762 C 88.740 35.443,87.934 36.000,87.795 36.000 C 87.657 36.000,86.690 36.720,85.646 37.600 C 84.602 38.480,83.600 39.200,83.417 39.200 C 83.235 39.200,82.138 40.010,80.979 41.000 C 79.821 41.990,78.735 42.800,78.567 42.800 C 78.399 42.800,77.258 43.671,76.031 44.736 C 74.804 45.801,73.581 46.746,73.313 46.836 C 73.045 46.926,69.865 49.835,66.245 53.300 C 62.625 56.765,59.469 59.600,59.232 59.600 C 58.994 59.600,58.800 59.801,58.800 60.046 C 58.800 60.291,56.010 63.417,52.600 66.994 C 49.190 70.570,46.400 73.643,46.400 73.822 C 46.400 74.002,45.658 75.029,44.750 76.105 C 43.767 77.271,43.100 78.471,43.100 79.074 C 43.100 79.630,42.978 79.889,42.830 79.648 C 42.585 79.251,39.600 82.357,39.600 83.009 C 39.600 83.150,38.970 84.034,38.200 84.974 C 37.430 85.914,36.800 86.812,36.800 86.969 C 36.800 87.127,36.124 88.099,35.298 89.128 C 33.548 91.310,33.105 91.996,31.956 94.305 C 31.489 95.243,30.945 96.110,30.747 96.232 C 30.550 96.355,30.124 97.027,29.802 97.727 C 29.215 99.002,28.876 99.577,27.417 101.777 C 25.946 103.994,25.200 105.769,25.396 106.585 C 25.504 107.033,25.485 107.162,25.354 106.872 C 24.971 106.026,23.909 107.849,24.171 108.904 C 24.293 109.397,24.285 109.562,24.154 109.272 C 23.771 108.426,22.709 110.249,22.971 111.304 C 23.093 111.797,23.085 111.962,22.954 111.672 C 22.571 110.826,21.509 112.649,21.771 113.704 C 21.893 114.197,21.885 114.362,21.754 114.072 C 21.371 113.226,20.309 115.049,20.571 116.104 C 20.693 116.597,20.685 116.762,20.554 116.472 C 20.159 115.599,19.106 117.455,19.401 118.504 C 19.571 119.110,19.533 119.229,19.285 118.872 C 19.011 118.477,18.751 118.695,18.259 119.732 C 17.400 121.542,17.428 122.228,18.400 123.200 C 18.840 123.640,19.030 124.000,18.823 124.000 C 18.615 124.000,18.181 123.622,17.858 123.161 L 17.270 122.322 16.835 123.135 C 16.596 123.582,16.400 124.387,16.400 124.925 C 16.400 125.462,16.114 126.139,15.766 126.429 C 15.324 126.795,15.202 127.327,15.365 128.178 C 15.527 129.026,15.483 129.220,15.221 128.811 C 14.905 128.318,14.803 128.351,14.596 129.011 C 14.460 129.445,14.073 130.364,13.736 131.054 C 13.399 131.744,13.191 132.644,13.273 133.054 C 13.356 133.464,13.105 134.147,12.717 134.570 C 12.328 134.994,11.894 135.984,11.753 136.770 C 11.611 137.557,11.355 138.380,11.184 138.600 C 11.012 138.820,10.745 139.677,10.590 140.504 C 10.436 141.332,10.150 142.107,9.955 142.228 C 9.760 142.349,9.600 142.937,9.600 143.535 C 9.600 144.133,9.354 144.977,9.054 145.411 C 8.754 145.845,8.376 147.280,8.215 148.600 C 8.055 149.920,7.729 151.236,7.493 151.524 C 6.969 152.161,6.878 155.895,7.359 157.000 C 7.698 157.777,7.691 157.778,7.115 157.039 C 6.212 155.881,5.797 156.901,5.828 160.200 C 5.843 161.782,5.752 162.478,5.619 161.800 C 5.212 159.730,4.805 161.332,4.700 165.413 C 4.645 167.551,4.541 169.006,4.470 168.646 C 4.199 167.286,3.600 168.527,3.600 170.447 C 3.600 171.872,3.735 172.364,4.068 172.158 C 4.387 171.961,4.451 172.091,4.268 172.567 C 4.121 172.951,3.982 173.566,3.960 173.933 C 3.936 174.336,3.794 174.205,3.600 173.600 C 3.360 172.849,3.270 173.203,3.240 175.020 C 3.218 176.370,2.979 177.661,2.700 177.940 C 2.007 178.633,1.969 221.995,2.660 222.839 C 2.913 223.147,3.250 224.840,3.408 226.600 C 3.566 228.360,3.833 229.980,4.001 230.200 C 4.168 230.420,4.435 232.400,4.594 234.600 C 4.752 236.800,5.021 238.780,5.190 239.000 C 5.360 239.220,5.622 240.251,5.773 241.291 C 5.923 242.331,6.192 243.272,6.370 243.382 C 6.549 243.492,6.817 244.661,6.966 245.979 C 7.216 248.189,7.744 249.356,8.066 248.411 C 8.140 248.195,8.220 249.090,8.244 250.400 C 8.268 251.711,8.485 253.021,8.726 253.311 C 8.968 253.602,9.287 254.641,9.437 255.620 C 9.587 256.599,9.849 257.580,10.019 257.800 C 10.189 258.020,10.460 258.903,10.621 259.763 C 10.781 260.622,11.156 261.792,11.454 262.363 C 11.752 262.933,11.996 263.610,11.998 263.868 C 11.999 264.125,12.261 264.845,12.580 265.468 C 12.898 266.090,13.268 266.955,13.401 267.389 C 13.560 267.908,13.741 268.020,13.929 267.715 C 14.086 267.460,14.233 267.959,14.256 268.823 C 14.279 269.687,14.476 270.621,14.693 270.897 C 14.911 271.174,15.211 271.940,15.359 272.600 C 15.507 273.260,15.878 274.340,16.184 275.000 C 17.262 277.324,18.000 279.124,18.000 279.429 C 18.000 279.692,21.377 286.588,22.393 288.400 C 22.578 288.730,23.230 290.046,23.843 291.324 C 24.455 292.603,25.089 293.732,25.253 293.833 C 25.416 293.934,26.101 295.138,26.776 296.508 C 28.048 299.094,28.443 299.783,29.813 301.800 C 30.261 302.460,30.845 303.450,31.111 304.000 C 31.683 305.183,32.275 306.143,33.499 307.873 C 33.995 308.574,34.400 309.275,34.400 309.432 C 34.400 309.589,35.030 310.486,35.800 311.426 C 36.570 312.366,37.200 313.287,37.200 313.474 C 37.200 313.661,38.010 314.740,39.000 315.871 C 39.990 317.003,40.800 318.061,40.800 318.223 C 40.800 318.385,41.475 319.334,42.300 320.332 C 43.125 321.330,43.890 322.373,44.000 322.650 C 44.110 322.926,45.505 324.590,47.100 326.346 C 48.695 328.103,50.000 329.758,50.000 330.025 C 50.000 330.728,69.492 350.000,70.203 350.000 C 70.531 350.000,70.800 350.270,70.800 350.600 C 70.800 350.930,70.996 351.200,71.235 351.200 C 71.475 351.200,72.867 352.280,74.330 353.600 C 75.792 354.920,77.151 356.000,77.350 356.000 C 77.549 356.000,78.839 356.990,80.217 358.200 C 81.595 359.410,82.845 360.400,82.994 360.400 C 83.143 360.400,84.034 361.030,84.974 361.800 C 85.914 362.570,86.818 363.200,86.984 363.200 C 87.149 363.200,87.967 363.740,88.800 364.400 C 89.633 365.060,90.452 365.600,90.620 365.600 C 90.787 365.600,91.514 366.050,92.236 366.600 C 92.957 367.150,93.725 367.600,93.943 367.600 C 94.160 367.600,94.912 368.082,95.612 368.672 C 96.970 369.814,97.597 370.183,102.600 372.783 C 107.025 375.082,106.907 375.020,107.800 375.539 C 108.240 375.796,108.870 376.116,109.200 376.251 C 109.530 376.386,112.950 378.023,116.800 379.889 C 125.635 384.171,125.956 384.315,127.373 384.648 C 128.019 384.800,129.009 385.165,129.573 385.459 C 130.138 385.754,130.904 385.996,131.276 385.998 C 131.648 385.999,132.054 386.164,132.178 386.365 C 132.303 386.566,133.122 386.852,134.000 387.000 C 134.878 387.148,135.688 387.418,135.800 387.600 C 135.912 387.782,136.722 388.052,137.600 388.200 C 138.478 388.348,139.288 388.618,139.400 388.800 C 139.512 388.982,140.322 389.252,141.200 389.400 C 142.078 389.548,142.888 389.818,143.000 390.000 C 143.112 390.182,143.968 390.456,144.902 390.610 C 145.836 390.764,146.780 391.030,147.000 391.200 C 147.220 391.371,148.345 391.637,149.500 391.793 C 150.654 391.948,151.687 392.217,151.794 392.391 C 151.902 392.564,152.979 392.830,154.188 392.981 C 155.398 393.132,156.482 393.409,156.598 393.597 C 156.714 393.784,158.022 394.063,159.504 394.217 C 160.987 394.371,162.380 394.631,162.600 394.794 C 162.820 394.957,164.606 395.209,166.568 395.353 C 168.531 395.497,170.403 395.837,170.730 396.108 C 171.574 396.808,228.406 396.825,229.250 396.125 C 229.565 395.863,231.257 395.525,233.011 395.372 C 234.765 395.219,236.380 394.958,236.600 394.792 C 236.820 394.625,238.170 394.359,239.600 394.200 C 241.030 394.041,242.380 393.774,242.600 393.606 C 242.820 393.438,243.900 393.171,245.000 393.013 C 246.100 392.855,247.180 392.585,247.400 392.413 C 247.620 392.241,248.700 391.971,249.800 391.813 C 250.900 391.655,251.980 391.385,252.200 391.213 C 252.420 391.041,253.451 390.778,254.491 390.627 C 255.531 390.477,256.473 390.205,256.586 390.023 C 256.698 389.841,257.598 389.571,258.586 389.423 C 259.573 389.275,260.474 389.005,260.586 388.822 C 260.699 388.640,261.416 388.374,262.179 388.230 C 262.942 388.087,264.069 387.708,264.683 387.388 C 265.297 387.067,266.027 386.804,266.305 386.802 C 266.583 386.801,267.123 386.646,267.505 386.459 C 269.692 385.385,271.132 384.797,272.173 384.552 C 272.819 384.400,273.809 384.035,274.373 383.741 C 274.938 383.446,275.574 383.204,275.787 383.202 C 276.134 383.200,285.325 378.815,286.800 377.948 C 287.130 377.754,287.670 377.488,288.000 377.358 C 288.985 376.968,296.536 373.220,297.400 372.691 C 297.840 372.422,298.740 371.835,299.400 371.387 C 300.060 370.939,301.050 370.347,301.600 370.071 C 302.890 369.423,303.929 368.798,305.408 367.780 C 306.064 367.330,307.050 366.738,307.600 366.465 C 309.338 365.602,310.182 365.041,312.057 363.500 C 313.061 362.675,314.024 362.000,314.198 362.000 C 314.372 362.000,315.462 361.190,316.621 360.200 C 317.779 359.210,318.882 358.400,319.071 358.400 C 319.259 358.400,320.340 357.590,321.471 356.600 C 322.603 355.610,323.685 354.800,323.876 354.800 C 324.066 354.800,326.046 353.090,328.276 351.000 C 330.506 348.910,332.483 347.200,332.669 347.200 C 333.109 347.200,346.400 333.897,346.400 333.457 C 346.400 333.273,348.200 331.224,350.400 328.902 C 352.600 326.581,354.400 324.514,354.400 324.309 C 354.400 324.104,355.300 322.902,356.400 321.637 C 357.500 320.373,358.400 319.169,358.400 318.962 C 358.400 318.755,359.210 317.660,360.200 316.529 C 361.190 315.397,362.000 314.346,362.000 314.193 C 362.000 314.040,362.540 313.233,363.200 312.400 C 363.860 311.567,364.400 310.757,364.400 310.600 C 364.400 310.443,364.940 309.633,365.600 308.800 C 366.260 307.967,366.800 307.164,366.800 307.016 C 366.800 306.868,367.205 306.174,367.701 305.473 C 368.925 303.743,369.517 302.783,370.089 301.600 C 370.355 301.050,370.939 300.060,371.387 299.400 C 372.771 297.362,373.072 296.802,376.542 289.800 C 380.897 281.011,382.400 277.801,382.400 277.283 C 382.400 277.053,382.700 276.265,383.068 275.532 C 384.266 273.140,384.400 272.817,384.402 272.305 C 384.404 272.027,384.657 271.317,384.965 270.727 C 385.273 270.137,385.652 269.057,385.808 268.327 C 385.965 267.597,386.227 266.820,386.391 266.600 C 386.555 266.380,386.811 265.660,386.959 265.000 C 387.193 263.954,387.601 262.936,388.808 260.387 C 388.968 260.050,389.232 259.150,389.395 258.387 C 389.559 257.624,389.829 256.820,389.996 256.600 C 390.163 256.380,390.429 255.300,390.587 254.200 C 390.745 253.100,391.013 252.020,391.183 251.800 C 391.352 251.580,391.613 250.599,391.763 249.620 C 391.913 248.641,392.206 247.634,392.415 247.382 C 392.623 247.131,392.957 245.862,393.157 244.563 C 393.664 241.260,394.442 237.548,394.826 236.600 C 395.004 236.160,395.269 234.180,395.415 232.200 C 395.561 230.220,395.888 228.347,396.140 228.039 C 396.819 227.210,396.795 171.958,396.116 171.140 C 395.850 170.819,395.510 169.036,395.362 167.178 C 395.214 165.320,394.959 163.620,394.795 163.400 C 394.632 163.180,394.369 161.920,394.211 160.600 C 394.052 159.280,393.785 158.020,393.617 157.800 C 393.448 157.580,393.195 156.518,393.055 155.440 C 392.914 154.363,392.636 153.283,392.437 153.040 C 392.238 152.798,391.945 151.700,391.787 150.600 C 391.629 149.500,391.342 148.402,391.150 148.160 C 390.958 147.917,390.686 146.837,390.545 145.760 C 390.405 144.682,390.155 143.620,389.990 143.400 C 389.825 143.180,389.564 142.236,389.410 141.302 C 389.256 140.368,388.982 139.512,388.800 139.400 C 388.618 139.288,388.348 138.478,388.200 137.600 C 388.052 136.722,387.766 135.903,387.565 135.778 C 387.364 135.654,387.200 135.268,387.200 134.920 C 387.200 134.383,386.433 132.487,385.203 129.987 C 385.037 129.650,384.775 128.797,384.620 128.091 C 384.465 127.386,384.172 126.706,383.969 126.581 C 383.766 126.455,383.600 125.986,383.600 125.537 C 383.600 124.736,382.917 122.914,381.776 120.668 C 381.459 120.045,381.200 119.302,381.200 119.017 C 381.200 118.731,380.942 118.283,380.626 118.021 C 380.310 117.759,379.936 117.019,379.795 116.377 C 379.654 115.735,379.105 114.442,378.574 113.505 C 378.044 112.567,377.498 111.530,377.361 111.200 C 376.660 109.509,375.007 106.328,374.747 106.167 C 374.584 106.066,373.890 104.862,373.206 103.492 C 371.743 100.563,371.307 99.812,370.100 98.130 C 369.605 97.441,369.200 96.750,369.200 96.596 C 369.200 96.441,368.697 95.659,368.082 94.858 C 367.468 94.056,366.749 92.950,366.485 92.400 C 365.857 91.090,365.239 90.121,363.900 88.344 C 363.295 87.541,362.800 86.763,362.800 86.614 C 362.800 86.465,362.080 85.490,361.200 84.446 C 360.320 83.402,359.600 82.400,359.600 82.217 C 359.600 82.035,358.790 80.938,357.800 79.779 C 356.810 78.621,356.000 77.519,356.000 77.331 C 356.000 77.143,354.920 75.792,353.600 74.330 C 352.280 72.867,351.200 71.490,351.200 71.269 C 351.200 70.594,330.511 50.000,329.834 50.000 C 329.485 50.000,329.200 49.730,329.200 49.400 C 329.200 49.070,329.004 48.800,328.765 48.800 C 328.525 48.800,327.133 47.720,325.670 46.400 C 324.208 45.080,322.861 44.000,322.677 44.000 C 322.494 44.000,321.490 43.280,320.446 42.400 C 319.402 41.520,318.411 40.800,318.243 40.800 C 318.074 40.800,316.902 39.900,315.637 38.800 C 314.373 37.700,313.198 36.800,313.027 36.800 C 312.855 36.800,312.033 36.260,311.200 35.600 C 310.367 34.940,309.557 34.400,309.400 34.400 C 309.243 34.400,308.459 33.898,307.658 33.285 C 306.856 32.672,305.480 31.817,304.600 31.385 C 303.720 30.953,302.443 30.195,301.762 29.700 C 301.081 29.205,300.394 28.800,300.236 28.800 C 300.077 28.800,299.323 28.325,298.562 27.744 C 296.940 26.507,296.190 26.087,290.709 23.344 C 283.814 19.894,278.933 17.600,278.488 17.600 C 278.255 17.600,277.555 17.341,276.932 17.024 C 275.062 16.074,272.908 15.200,272.434 15.200 C 272.189 15.200,271.677 15.046,271.295 14.859 C 268.784 13.626,267.645 13.173,266.492 12.950 C 265.772 12.811,265.086 12.540,264.968 12.348 C 264.850 12.157,264.448 11.999,264.076 11.998 C 263.704 11.996,262.920 11.744,262.333 11.438 C 261.746 11.132,260.532 10.757,259.635 10.606 C 258.738 10.454,257.906 10.171,257.786 9.977 C 257.665 9.782,256.670 9.504,255.575 9.359 C 254.479 9.213,253.493 8.951,253.385 8.775 C 253.276 8.600,252.198 8.332,250.988 8.181 C 249.779 8.030,248.699 7.760,248.588 7.581 C 248.478 7.402,247.398 7.132,246.188 6.981 C 244.979 6.830,243.899 6.560,243.788 6.381 C 243.678 6.202,242.555 5.931,241.294 5.779 C 240.032 5.626,238.820 5.359,238.600 5.185 C 238.380 5.011,236.850 4.740,235.200 4.583 C 233.550 4.426,232.020 4.162,231.800 3.996 C 231.580 3.830,229.600 3.565,227.400 3.406 C 225.200 3.248,223.148 2.912,222.839 2.659 C 222.287 2.208,183.786 1.877,179.010 2.282 M185.100 2.676 C 184.715 2.776,184.085 2.776,183.700 2.676 C 183.315 2.575,183.630 2.493,184.400 2.493 C 185.170 2.493,185.485 2.575,185.100 2.676 M89.200 36.200 C 88.926 36.530,88.522 36.800,88.302 36.800 C 88.079 36.800,88.122 36.535,88.400 36.200 C 88.674 35.870,89.078 35.600,89.298 35.600 C 89.521 35.600,89.478 35.865,89.200 36.200 M84.922 39.456 C 85.348 39.882,84.815 40.380,84.189 40.141 C 83.868 40.017,83.704 39.755,83.826 39.558 C 84.085 39.139,84.561 39.094,84.922 39.456 M141.564 44.182 C 142.630 44.722,144.587 46.027,145.914 47.082 C 147.241 48.137,150.341 50.440,152.802 52.200 C 155.263 53.960,161.115 58.190,165.806 61.600 C 170.496 65.010,176.600 69.420,179.369 71.400 C 182.138 73.380,185.168 75.579,186.102 76.286 C 187.036 76.993,189.510 78.764,191.600 80.220 C 198.152 84.785,198.563 85.098,200.151 86.737 C 201.854 88.495,202.575 90.262,204.357 97.046 C 204.999 99.491,205.809 102.461,206.156 103.646 C 206.503 104.831,207.527 108.500,208.430 111.800 C 210.853 120.653,211.537 123.119,212.367 126.000 C 212.780 127.430,213.519 130.130,214.009 132.000 C 214.500 133.870,215.239 136.470,215.651 137.778 C 216.063 139.085,216.402 140.435,216.404 140.778 C 216.411 141.881,218.310 145.524,219.098 145.945 C 220.147 146.507,222.785 145.241,227.386 141.967 C 236.665 135.364,250.738 126.083,252.201 125.600 C 253.684 125.110,255.533 125.803,257.847 127.715 C 258.481 128.239,262.150 130.799,266.000 133.403 C 269.850 136.007,273.720 138.714,274.600 139.417 C 275.480 140.121,279.890 143.174,284.400 146.202 C 288.910 149.230,293.860 152.643,295.400 153.786 C 296.940 154.928,300.806 157.633,303.992 159.795 C 311.267 164.734,313.590 166.561,314.600 168.141 C 315.413 169.412,316.147 307.902,315.381 315.600 C 315.025 319.187,314.878 319.308,293.689 333.493 C 283.850 340.080,273.748 346.859,271.241 348.558 C 264.095 353.399,261.685 354.415,260.943 352.900 C 260.754 352.515,260.510 319.710,260.400 280.000 C 260.201 208.101,260.197 207.794,259.380 206.403 C 258.602 205.079,253.125 200.807,248.600 197.995 C 246.651 196.784,246.058 196.360,241.562 192.969 C 240.373 192.072,238.410 190.691,237.200 189.900 C 235.990 189.109,233.260 187.233,231.133 185.731 C 219.791 177.722,217.340 175.997,214.181 173.800 C 212.282 172.480,209.350 170.439,207.665 169.264 C 200.830 164.502,199.150 163.955,197.337 165.900 C 196.773 166.505,191.473 176.774,185.559 188.719 C 171.665 216.785,171.766 216.687,168.427 205.400 C 167.712 202.980,166.884 200.280,166.588 199.400 C 166.093 197.928,165.536 196.105,162.063 184.600 C 161.399 182.400,160.552 179.520,160.180 178.200 C 159.809 176.880,159.177 174.810,158.777 173.600 C 158.377 172.390,157.571 169.690,156.987 167.600 C 156.402 165.510,155.216 161.550,154.351 158.800 C 153.485 156.050,152.527 152.990,152.222 152.000 C 151.916 151.010,150.941 147.860,150.054 145.000 C 149.168 142.140,148.319 139.260,148.168 138.600 C 145.567 127.253,144.844 126.352,130.847 117.023 C 124.771 112.974,118.360 108.672,116.600 107.463 C 114.840 106.255,106.680 100.821,98.467 95.388 C 77.096 81.252,77.180 81.663,93.452 70.809 C 98.407 67.504,102.519 64.800,102.590 64.800 C 102.661 64.800,103.772 64.076,105.060 63.190 C 107.762 61.332,109.206 60.370,122.131 51.825 C 136.314 42.449,137.345 42.044,141.564 44.182 M74.830 46.964 C 74.509 47.350,74.494 47.611,74.781 47.788 C 75.011 47.931,75.179 48.352,75.154 48.724 C 75.112 49.328,75.088 49.325,74.923 48.695 C 74.822 48.307,74.545 48.110,74.308 48.257 C 74.051 48.415,73.992 48.336,74.162 48.062 C 74.319 47.808,74.235 47.600,73.975 47.600 C 73.622 47.600,73.629 47.447,74.000 47.000 C 74.274 46.670,74.678 46.400,74.898 46.400 C 75.132 46.400,75.104 46.634,74.830 46.964 M71.600 49.319 C 71.600 49.384,70.835 50.149,69.900 51.019 L 68.200 52.600 69.781 50.900 C 71.252 49.319,71.600 49.016,71.600 49.319 M65.000 55.600 C 64.602 56.040,64.416 56.400,64.587 56.400 C 64.758 56.400,64.697 56.642,64.452 56.937 C 64.207 57.232,64.120 57.586,64.258 57.724 C 64.395 57.862,64.128 57.902,63.663 57.812 C 63.197 57.722,62.712 57.818,62.585 58.025 C 62.457 58.231,62.146 58.400,61.893 58.400 C 61.640 58.400,62.228 57.590,63.200 56.600 C 64.918 54.849,66.449 53.999,65.000 55.600 M60.602 59.998 C 60.203 60.439,59.693 60.800,59.468 60.800 C 59.244 60.800,59.483 60.351,59.999 59.802 C 61.099 58.630,61.672 58.816,60.602 59.998 M61.818 61.982 C 60.162 63.663,58.653 64.408,59.421 63.166 C 59.550 62.957,59.794 62.872,59.963 62.977 C 60.132 63.081,60.966 62.454,61.816 61.583 C 62.667 60.713,63.454 60.000,63.566 60.000 C 63.678 60.000,62.891 60.892,61.818 61.982 M58.408 62.190 C 58.130 62.526,58.045 62.800,58.221 62.800 C 58.396 62.800,58.146 63.218,57.666 63.730 C 57.186 64.241,56.884 64.751,56.996 64.863 C 57.108 64.975,56.960 65.067,56.667 65.067 C 55.742 65.067,56.054 63.849,57.323 62.506 C 58.517 61.242,59.411 60.982,58.408 62.190 M52.400 68.519 C 52.400 68.584,51.635 69.349,50.700 70.219 L 49.000 71.800 50.581 70.100 C 52.052 68.519,52.400 68.216,52.400 68.519 M52.800 69.773 C 52.800 69.868,52.215 70.350,51.500 70.844 L 50.200 71.742 51.170 70.671 C 52.034 69.716,52.800 69.294,52.800 69.773 M50.846 73.033 C 50.381 73.624,50.000 73.982,50.000 73.829 C 50.000 73.433,51.370 71.650,51.546 71.818 C 51.626 71.895,51.311 72.442,50.846 73.033 M47.230 74.990 C 47.214 75.105,47.065 75.215,46.900 75.234 C 46.735 75.253,46.375 75.455,46.100 75.683 C 45.356 76.301,45.495 75.579,46.290 74.701 C 46.871 74.058,47.342 74.203,47.230 74.990 M39.200 85.000 C 38.917 85.341,38.596 85.529,38.486 85.419 C 38.376 85.309,38.517 84.941,38.800 84.600 C 39.083 84.259,39.404 84.071,39.514 84.181 C 39.624 84.291,39.483 84.659,39.200 85.000 M37.378 88.288 C 37.524 88.666,37.514 88.848,37.358 88.691 C 37.202 88.535,36.832 88.607,36.537 88.852 C 35.871 89.405,35.822 88.738,36.480 88.080 C 37.086 87.474,37.064 87.469,37.378 88.288 M34.896 92.141 C 35.149 91.984,35.207 92.065,35.038 92.338 C 34.881 92.592,34.973 92.800,35.243 92.800 C 35.513 92.800,35.618 92.916,35.476 93.057 C 35.335 93.198,34.973 93.110,34.673 92.860 C 34.372 92.611,34.008 92.525,33.863 92.670 C 33.718 92.815,33.600 92.753,33.600 92.533 C 33.600 91.924,34.164 91.492,34.326 91.977 C 34.404 92.213,34.661 92.286,34.896 92.141 M31.334 98.138 C 31.590 97.992,31.660 98.026,31.488 98.214 C 31.084 98.659,30.000 98.817,30.000 98.431 C 30.000 97.900,30.579 97.537,30.726 97.977 C 30.804 98.213,31.078 98.285,31.334 98.138 M18.349 131.305 C 18.707 131.177,18.870 131.216,18.712 131.391 C 18.553 131.566,17.773 131.761,16.977 131.824 C 15.676 131.928,15.604 131.885,16.265 131.396 C 16.673 131.095,17.155 131.006,17.349 131.196 C 17.541 131.384,17.991 131.433,18.349 131.305 M130.371 178.549 C 131.047 179.730,131.600 180.910,131.600 181.171 C 131.600 181.431,131.952 182.416,132.382 183.360 C 133.209 185.175,136.400 195.451,136.400 196.298 C 136.400 196.573,136.745 197.833,137.166 199.098 C 137.587 200.364,138.296 202.660,138.742 204.200 C 140.695 210.945,142.177 216.182,143.610 221.400 C 144.456 224.480,145.444 227.900,145.805 229.000 C 146.166 230.100,146.887 232.620,147.408 234.600 C 147.930 236.580,148.816 239.900,149.378 241.979 C 151.093 248.321,151.412 247.869,139.691 255.735 C 129.747 262.409,128.504 262.668,127.864 258.200 C 127.402 254.971,127.125 187.116,127.557 182.716 C 128.259 175.553,128.474 175.234,130.371 178.549 M2.810 183.300 C 2.634 185.246,2.610 185.287,2.483 183.858 C 2.363 182.499,2.560 181.200,2.887 181.200 C 2.949 181.200,2.914 182.145,2.810 183.300 M3.887 188.300 C 3.795 188.905,3.720 188.410,3.720 187.200 C 3.720 185.990,3.795 185.495,3.887 186.100 C 3.978 186.705,3.978 187.695,3.887 188.300 M3.887 201.100 C 3.795 201.705,3.720 201.210,3.720 200.000 C 3.720 198.790,3.795 198.295,3.887 198.900 C 3.978 199.505,3.978 200.495,3.887 201.100 M2.690 216.893 C 2.601 217.612,2.526 217.120,2.524 215.800 C 2.522 214.480,2.595 213.892,2.686 214.493 C 2.777 215.094,2.779 216.174,2.690 216.893 M215.288 240.541 C 216.132 243.362,216.000 275.438,215.138 277.000 C 214.216 278.670,213.327 279.409,207.400 283.429 C 179.406 302.414,180.120 302.801,193.712 276.000 C 197.338 268.850,202.651 258.320,205.519 252.600 C 212.597 238.483,214.112 236.612,215.288 240.541 " stroke="none" fill="#363736" fill-rule="evenodd"></path><path id="path1" d="M183.700 2.676 C 184.085 2.776,184.715 2.776,185.100 2.676 C 185.485 2.575,185.170 2.493,184.400 2.493 C 183.630 2.493,183.315 2.575,183.700 2.676 M88.400 36.200 C 88.122 36.535,88.079 36.800,88.302 36.800 C 88.522 36.800,88.926 36.530,89.200 36.200 C 89.478 35.865,89.521 35.600,89.298 35.600 C 89.078 35.600,88.674 35.870,88.400 36.200 M83.826 39.558 C 83.704 39.755,83.868 40.017,84.189 40.141 C 84.815 40.380,85.348 39.882,84.922 39.456 C 84.561 39.094,84.085 39.139,83.826 39.558 M133.872 44.362 C 132.657 45.001,127.374 48.360,122.131 51.825 C 109.206 60.370,107.762 61.332,105.060 63.190 C 103.772 64.076,102.661 64.800,102.590 64.800 C 102.519 64.800,98.407 67.504,93.452 70.809 C 77.180 81.663,77.096 81.252,98.467 95.388 C 106.680 100.821,114.840 106.255,116.600 107.463 C 118.360 108.672,124.771 112.974,130.847 117.023 C 144.844 126.352,145.567 127.253,148.168 138.600 C 148.319 139.260,149.168 142.140,150.054 145.000 C 150.941 147.860,151.916 151.010,152.222 152.000 C 152.527 152.990,153.485 156.050,154.351 158.800 C 155.216 161.550,156.402 165.510,156.987 167.600 C 157.571 169.690,158.377 172.390,158.777 173.600 C 159.177 174.810,159.809 176.880,160.180 178.200 C 160.552 179.520,161.399 182.400,162.063 184.600 C 165.536 196.105,166.093 197.928,166.588 199.400 C 166.884 200.280,167.712 202.980,168.427 205.400 C 171.766 216.687,171.665 216.785,185.559 188.719 C 191.473 176.774,196.773 166.505,197.337 165.900 C 199.150 163.955,200.830 164.502,207.665 169.264 C 209.350 170.439,212.282 172.480,214.181 173.800 C 217.340 175.997,219.791 177.722,231.133 185.731 C 233.260 187.233,235.990 189.109,237.200 189.900 C 238.410 190.691,240.373 192.072,241.562 192.969 C 246.058 196.360,246.651 196.784,248.600 197.995 C 253.125 200.807,258.602 205.079,259.380 206.403 C 260.197 207.794,260.201 208.101,260.400 280.000 C 260.510 319.710,260.754 352.515,260.943 352.900 C 261.685 354.415,264.095 353.399,271.241 348.558 C 273.748 346.859,283.850 340.080,293.689 333.493 C 314.878 319.308,315.025 319.187,315.381 315.600 C 316.147 307.902,315.413 169.412,314.600 168.141 C 313.590 166.561,311.267 164.734,303.992 159.795 C 300.806 157.633,296.940 154.928,295.400 153.786 C 293.860 152.643,288.910 149.230,284.400 146.202 C 279.890 143.174,275.480 140.121,274.600 139.417 C 273.720 138.714,269.850 136.007,266.000 133.403 C 262.150 130.799,258.481 128.239,257.847 127.715 C 255.533 125.803,253.684 125.110,252.201 125.600 C 250.738 126.083,236.665 135.364,227.386 141.967 C 222.785 145.241,220.147 146.507,219.098 145.945 C 218.310 145.524,216.411 141.881,216.404 140.778 C 216.402 140.435,216.063 139.085,215.651 137.778 C 215.239 136.470,214.500 133.870,214.009 132.000 C 213.519 130.130,212.780 127.430,212.367 126.000 C 211.537 123.119,210.853 120.653,208.430 111.800 C 207.527 108.500,206.503 104.831,206.156 103.646 C 205.809 102.461,204.999 99.491,204.357 97.046 C 202.575 90.262,201.854 88.495,200.151 86.737 C 198.563 85.098,198.152 84.785,191.600 80.220 C 189.510 78.764,187.036 76.993,186.102 76.286 C 185.168 75.579,182.138 73.380,179.369 71.400 C 176.600 69.420,170.496 65.010,165.806 61.600 C 161.115 58.190,155.263 53.960,152.802 52.200 C 150.341 50.440,147.241 48.137,145.914 47.082 C 140.738 42.966,137.791 42.301,133.872 44.362 M74.000 47.000 C 73.629 47.447,73.622 47.600,73.975 47.600 C 74.235 47.600,74.319 47.808,74.162 48.062 C 73.992 48.336,74.051 48.415,74.308 48.257 C 74.545 48.110,74.822 48.307,74.923 48.695 C 75.088 49.325,75.112 49.328,75.154 48.724 C 75.179 48.352,75.011 47.931,74.781 47.788 C 74.494 47.611,74.509 47.350,74.830 46.964 C 75.104 46.634,75.132 46.400,74.898 46.400 C 74.678 46.400,74.274 46.670,74.000 47.000 M69.781 50.900 L 68.200 52.600 69.900 51.019 C 70.835 50.149,71.600 49.384,71.600 49.319 C 71.600 49.016,71.252 49.319,69.781 50.900 M63.200 56.600 C 62.228 57.590,61.640 58.400,61.893 58.400 C 62.146 58.400,62.457 58.231,62.585 58.025 C 62.712 57.818,63.197 57.722,63.663 57.812 C 64.128 57.902,64.395 57.862,64.258 57.724 C 64.120 57.586,64.207 57.232,64.452 56.937 C 64.697 56.642,64.758 56.400,64.587 56.400 C 64.416 56.400,64.602 56.040,65.000 55.600 C 66.449 53.999,64.918 54.849,63.200 56.600 M59.999 59.802 C 59.483 60.351,59.244 60.800,59.468 60.800 C 59.979 60.800,61.398 59.265,61.132 58.999 C 61.025 58.891,60.514 59.252,59.999 59.802 M61.816 61.583 C 60.966 62.454,60.132 63.081,59.963 62.977 C 59.794 62.872,59.550 62.957,59.421 63.166 C 58.653 64.408,60.162 63.663,61.818 61.982 C 62.891 60.892,63.678 60.000,63.566 60.000 C 63.454 60.000,62.667 60.713,61.816 61.583 M57.323 62.506 C 56.054 63.849,55.742 65.067,56.667 65.067 C 56.960 65.067,57.108 64.975,56.996 64.863 C 56.884 64.751,57.186 64.241,57.666 63.730 C 58.146 63.218,58.396 62.800,58.221 62.800 C 58.045 62.800,58.130 62.526,58.408 62.190 C 59.411 60.982,58.517 61.242,57.323 62.506 M50.581 70.100 L 49.000 71.800 50.700 70.219 C 51.635 69.349,52.400 68.584,52.400 68.519 C 52.400 68.216,52.052 68.519,50.581 70.100 M51.170 70.671 L 50.200 71.742 51.500 70.844 C 52.812 69.937,53.075 69.600,52.470 69.600 C 52.288 69.600,51.703 70.082,51.170 70.671 M50.700 72.614 C 49.701 73.950,49.831 74.323,50.846 73.033 C 51.311 72.442,51.626 71.895,51.546 71.818 C 51.466 71.741,51.085 72.100,50.700 72.614 M46.290 74.701 C 45.495 75.579,45.356 76.301,46.100 75.683 C 46.375 75.455,46.735 75.253,46.900 75.234 C 47.251 75.194,47.314 74.943,47.120 74.359 C 47.043 74.128,46.669 74.282,46.290 74.701 M38.800 84.600 C 38.517 84.941,38.376 85.309,38.486 85.419 C 38.596 85.529,38.917 85.341,39.200 85.000 C 39.483 84.659,39.624 84.291,39.514 84.181 C 39.404 84.071,39.083 84.259,38.800 84.600 M36.480 88.080 C 35.822 88.738,35.871 89.405,36.537 88.852 C 36.832 88.607,37.202 88.535,37.358 88.691 C 37.514 88.848,37.524 88.666,37.378 88.288 C 37.064 87.469,37.086 87.474,36.480 88.080 M33.892 91.842 C 33.731 92.002,33.600 92.313,33.600 92.533 C 33.600 92.753,33.718 92.815,33.863 92.670 C 34.008 92.525,34.372 92.611,34.673 92.860 C 34.973 93.110,35.335 93.198,35.476 93.057 C 35.618 92.916,35.513 92.800,35.243 92.800 C 34.973 92.800,34.881 92.592,35.038 92.338 C 35.207 92.065,35.149 91.984,34.896 92.141 C 34.661 92.286,34.404 92.213,34.326 91.977 C 34.247 91.742,34.052 91.681,33.892 91.842 M30.292 97.842 C 30.131 98.002,30.000 98.267,30.000 98.431 C 30.000 98.817,31.084 98.659,31.488 98.214 C 31.660 98.026,31.590 97.992,31.334 98.138 C 31.078 98.285,30.804 98.213,30.726 97.977 C 30.647 97.742,30.452 97.681,30.292 97.842 M16.265 131.396 C 15.604 131.885,15.676 131.928,16.977 131.824 C 17.773 131.761,18.553 131.566,18.712 131.391 C 18.870 131.216,18.707 131.177,18.349 131.305 C 17.991 131.433,17.541 131.384,17.349 131.196 C 17.155 131.006,16.673 131.095,16.265 131.396 M3.867 172.267 C 3.720 172.413,3.615 172.998,3.634 173.567 C 3.668 174.581,3.675 174.579,4.021 173.420 C 4.385 172.203,4.331 171.802,3.867 172.267 M128.232 177.416 C 127.304 181.112,127.152 189.099,127.386 221.800 C 127.523 240.940,127.738 257.320,127.864 258.200 C 128.504 262.668,129.747 262.409,139.691 255.735 C 151.412 247.869,151.093 248.321,149.378 241.979 C 148.816 239.900,147.930 236.580,147.408 234.600 C 146.887 232.620,146.166 230.100,145.805 229.000 C 145.444 227.900,144.456 224.480,143.610 221.400 C 142.177 216.182,140.695 210.945,138.742 204.200 C 138.296 202.660,137.587 200.364,137.166 199.098 C 136.745 197.833,136.400 196.573,136.400 196.298 C 136.400 195.451,133.209 185.175,132.382 183.360 C 131.952 182.416,131.600 181.431,131.600 181.171 C 131.600 180.497,129.207 176.400,128.814 176.400 C 128.634 176.400,128.372 176.857,128.232 177.416 M2.561 181.758 C 2.443 182.065,2.408 183.010,2.483 183.858 C 2.610 185.287,2.634 185.246,2.810 183.300 C 3.004 181.156,2.941 180.767,2.561 181.758 M3.720 187.200 C 3.720 188.410,3.795 188.905,3.887 188.300 C 3.978 187.695,3.978 186.705,3.887 186.100 C 3.795 185.495,3.720 185.990,3.720 187.200 M2.124 199.800 C 2.126 201.120,2.201 201.612,2.290 200.893 C 2.379 200.174,2.377 199.094,2.286 198.493 C 2.195 197.892,2.122 198.480,2.124 199.800 M3.720 200.000 C 3.720 201.210,3.795 201.705,3.887 201.100 C 3.978 200.495,3.978 199.505,3.887 198.900 C 3.795 198.295,3.720 198.790,3.720 200.000 M2.524 215.800 C 2.526 217.120,2.601 217.612,2.690 216.893 C 2.779 216.174,2.777 215.094,2.686 214.493 C 2.595 213.892,2.522 214.480,2.524 215.800 M212.173 240.315 C 211.381 241.352,208.386 246.880,205.519 252.600 C 202.651 258.320,197.338 268.850,193.712 276.000 C 181.313 300.450,181.387 301.061,195.592 291.434 C 215.194 278.149,214.030 279.008,215.138 277.000 C 216.000 275.438,216.132 243.362,215.288 240.541 C 214.572 238.150,213.867 238.098,212.173 240.315 " stroke="none" fill="#ffffff" fill-rule="evenodd"></path></g></svg>