<svg id="svg" version="1.1" xmlns="http://www.w3.org/2000/svg" xmlns:xlink="http://www.w3.org/1999/xlink" width="400" height="400" viewBox="0, 0, 400,400"><g id="svgg"><path id="path0" d="M158.600 82.239 C 157.940 82.327,155.690 82.589,153.600 82.821 C 104.005 88.318,69.184 114.155,70.921 144.170 C 72.480 171.132,107.312 175.755,119.453 150.611 C 122.418 144.472,121.441 142.581,115.389 142.740 C 107.926 142.936,104.720 139.766,104.720 132.192 C 104.720 111.779,132.994 96.198,170.000 96.218 C 209.815 96.239,235.676 114.869,235.772 143.600 C 235.840 163.813,221.733 176.609,190.829 184.368 C 181.433 186.727,178.988 186.566,177.298 183.476 C 176.352 181.746,176.022 137.528,176.855 124.200 C 177.900 107.501,177.824 107.399,168.291 112.707 C 161.182 116.667,156.881 118.603,148.116 121.791 C 141.343 124.255,140.976 125.070,144.014 130.910 C 148.021 138.614,148.793 144.451,149.087 169.272 C 149.388 194.638,150.164 192.756,138.000 196.154 C 127.557 199.071,121.314 201.651,116.600 204.997 C 99.882 216.861,106.894 239.017,126.518 236.336 C 134.410 235.257,137.129 232.208,135.200 226.600 C 133.564 221.845,134.549 217.889,138.254 214.331 C 142.655 210.104,146.713 209.223,148.315 212.148 C 149.146 213.667,149.572 258.867,148.825 266.306 C 146.239 292.062,132.163 308.959,112.983 309.330 C 107.684 309.433,106.355 308.349,105.357 303.111 C 102.750 289.431,83.657 291.989,85.381 305.787 C 87.211 320.432,107.200 324.831,133.452 316.367 C 152.734 310.150,154.478 309.219,157.171 303.708 C 160.123 297.668,163.483 297.092,168.800 301.715 C 171.533 304.091,172.447 304.415,178.139 305.023 C 187.160 305.985,189.277 305.705,190.322 303.411 C 191.350 301.156,190.631 299.524,186.728 295.247 C 178.296 286.011,175.783 267.769,176.661 222.200 C 177.076 200.646,176.847 201.374,183.800 199.585 C 192.844 197.259,194.205 198.110,198.222 208.600 C 229.072 289.154,284.020 339.872,329.971 330.206 C 345.626 326.913,353.042 313.936,344.277 305.171 C 338.778 299.672,325.528 298.726,320.494 303.474 C 318.793 305.078,318.881 306.190,320.940 309.079 C 327.089 317.710,314.875 322.976,302.123 317.194 C 276.807 305.715,245.454 255.609,231.575 204.450 C 227.549 189.610,227.669 189.238,238.015 184.452 C 259.108 174.693,269.605 160.267,269.598 141.048 C 269.587 108.871,244.060 89.176,194.577 83.167 C 187.801 82.344,162.662 81.696,158.600 82.239 " stroke="none" fill="#5d4535" fill-rule="evenodd"></path><path id="path1" d="M189.200 3.039 C 182.383 3.340,168.319 5.004,164.200 5.998 C 163.320 6.210,159.450 7.039,155.600 7.841 C 76.793 24.244,16.223 88.354,2.016 170.400 C -1.645 191.540,-0.626 221.278,4.449 241.400 C 19.145 299.667,50.495 342.527,98.800 370.390 C 119.033 382.061,140.014 389.535,166.200 394.400 C 208.452 402.251,258.624 392.450,298.413 368.574 C 321.950 354.450,344.632 334.751,353.193 321.000 C 354.151 319.460,357.038 314.960,359.608 311.000 C 375.431 286.619,384.039 266.195,389.953 239.000 C 393.301 223.603,394.579 195.411,392.682 178.800 C 382.725 91.607,317.795 21.942,232.000 6.401 C 231.010 6.221,228.670 5.788,226.800 5.438 C 217.803 3.753,199.489 2.584,189.200 3.039 M194.577 83.167 C 244.060 89.176,269.587 108.871,269.598 141.048 C 269.605 160.267,259.108 174.693,238.015 184.452 C 227.669 189.238,227.549 189.610,231.575 204.450 C 245.454 255.609,276.807 305.715,302.123 317.194 C 314.875 322.976,327.089 317.710,320.940 309.079 C 318.881 306.190,318.793 305.078,320.494 303.474 C 325.528 298.726,338.778 299.672,344.277 305.171 C 353.042 313.936,345.626 326.913,329.971 330.206 C 284.020 339.872,229.072 289.154,198.222 208.600 C 194.205 198.110,192.844 197.259,183.800 199.585 C 176.847 201.374,177.076 200.646,176.661 222.200 C 175.783 267.769,178.296 286.011,186.728 295.247 C 190.631 299.524,191.350 301.156,190.322 303.411 C 189.277 305.705,187.160 305.985,178.139 305.023 C 172.447 304.415,171.533 304.091,168.800 301.715 C 163.483 297.092,160.123 297.668,157.171 303.708 C 154.478 309.219,152.734 310.150,133.452 316.367 C 107.200 324.831,87.211 320.432,85.381 305.787 C 83.657 291.989,102.750 289.431,105.357 303.111 C 106.355 308.349,107.684 309.433,112.983 309.330 C 132.163 308.959,146.239 292.062,148.825 266.306 C 149.572 258.867,149.146 213.667,148.315 212.148 C 146.713 209.223,142.655 210.104,138.254 214.331 C 134.549 217.889,133.564 221.845,135.200 226.600 C 137.129 232.208,134.410 235.257,126.518 236.336 C 106.894 239.017,99.882 216.861,116.600 204.997 C 121.314 201.651,127.557 199.071,138.000 196.154 C 150.164 192.756,149.388 194.638,149.087 169.272 C 148.793 144.451,148.021 138.614,144.014 130.910 C 140.976 125.070,141.343 124.255,148.116 121.791 C 156.881 118.603,161.182 116.667,168.291 112.707 C 177.824 107.399,177.900 107.501,176.855 124.200 C 176.022 137.528,176.352 181.746,177.298 183.476 C 178.988 186.566,181.433 186.727,190.829 184.368 C 221.733 176.609,235.840 163.813,235.772 143.600 C 235.676 114.869,209.815 96.239,170.000 96.218 C 132.994 96.198,104.720 111.779,104.720 132.192 C 104.720 139.766,107.926 142.936,115.389 142.740 C 121.441 142.581,122.418 144.472,119.453 150.611 C 108.942 172.381,78.733 172.629,72.022 151.000 C 62.450 120.147,100.003 88.761,153.600 82.821 C 155.690 82.589,157.940 82.327,158.600 82.239 C 162.662 81.696,187.801 82.344,194.577 83.167 " stroke="none" fill="#fbe1b3" fill-rule="evenodd"></path></g></svg>